<?xml version="1.0" encoding="utf-8"?>
<!-- Generator: Adobe Illustrator 16.0.0, SVG Export Plug-In . SVG Version: 6.00 Build 0)  -->
<!DOCTYPE svg PUBLIC "-//W3C//DTD SVG 1.1//EN" "http://www.w3.org/Graphics/SVG/1.1/DTD/svg11.dtd">
<svg version="1.1" id="Layer_1" xmlns="http://www.w3.org/2000/svg" xmlns:xlink="http://www.w3.org/1999/xlink" x="0px" y="0px"
	 width="360px" height="200.995px" viewBox="0 0 360 200.995" enable-background="new 0 0 360 200.995" xml:space="preserve">
<g>
	<g>
		<path fill="#FFFFFF" d="M235.434,185.677L235.434,185.677c-0.525,0-2.541-0.137-2.822-4.048c-0.082-1.142,0.854-2.815,1.76-3.796
			c0.686-0.74,1.445-1.819,3.081-8.486c0.364-1.483,0.626-2.777,0.769-3.355c1.568-6.682,2.506-14.041,3.493-21.832
			c0.605-4.771,1.233-9.705,2.028-14.6c2.059-12.73,4.414-25.672,7-38.471c2.571-12.748,5.703-25.204,9.309-37.021
			c3.478-11.392,7.926-21.114,14.004-30.593c0.182-0.266,4.346-6.344,7.293-6.344c0.979,0,1.708,0.612,2.174,1.818l0.004,0.006
			c0.305,0.607,1.16,2.734-0.666,4.563c-0.054,0.052-5.028,4.946-7.029,8.85c0,0-4.467,6.831-9.396,20.262
			c-3.774,10.286-6.718,21.247-9.265,32.392c-2.561,11.161-6.623,38.348-7.527,46.227c-0.361,3.146-0.678,4.881-1.219,9.111
			c0.293-0.168,5.643-11.602,10.057-11.832c1.782-0.094,4.886,2.168,5.148,9.951c0.105,3.152-1.093,15.077-1.113,15.496
			c-0.211,4.451,0.795,9.006,4.52,9.043c0.588,0.006,1.166-0.219,1.724-0.432c0.55-0.208,1.067-0.402,1.595-0.402
			c0.488,0,0.906,0.168,1.277,0.519c0.464,0.437,0.387,0.87,0.301,1.089c-0.524,1.321-4.341,2.184-6.16,2.164
			c-10.302-0.112-7.938-17.598-7.709-22.897c0.077-1.812,0.705-5.798-0.172-5.647c-0.77,0.132-4.229,4.402-6.554,9.891
			c-2.169,5.124-4.528,13.162-5.615,17.642C243.55,173.894,238.971,185.675,235.434,185.677z"/>
	</g>
	<g>
		<path fill="#FFFFFF" d="M206.799,185.722c-1.525,0-2.498-1.324-2.835-2.106c-0.558-1.266-0.313-2.665,1.077-4.128
			c1.238-1.303,1.264-2.783,7.517-32.312c0.78-3.687,2.751-13.488,3.674-18.255c1.082-5.592,2.109-10.905,2.623-12.99
			c-1.566,0.438-6.175,1.813-9.366,2.776c0,0-1.539,0.554-1.732-0.928c-0.231-1.788,3.055-5.355,4.23-5.815
			c1.068-0.416,2.828-0.916,4.381-1.354l0.794-0.229c0.901-0.259,2.217-0.598,2.98-0.826c8.704-39.945,21.767-68.319,24.047-71.938
			l-0.011-0.007c3.685-7.232,8.968-8.737,9.227-8.737c0.491,0,0.705,0.278,0.788,0.443c0.177,0.352,0.957,1.501-3.188,7.176
			c-6.374,8.729-12.573,18.684-23.392,65.836c-0.47,2.045-0.795,3.698-1.307,5.923c1.213-0.272,3.589-0.948,5.184-1.42
			c0.598-0.177,1.154-0.343,1.618-0.475c0.581-0.169,1.903-0.637,3.431-1.179c4.096-1.45,7.299-2.562,8.204-2.562
			c0.083,0,0.335,0,0.472,0.208c0.078,0.12,0.088,0.269,0.029,0.406c-1.109,2.53-18.059,9.785-19.955,10.51
			c-0.365,0.924-1.332,5.057-1.711,6.477c-0.891,3.344-1.803,7.431-3.793,17.801c-1.027,5.367-1.849,10.66-2.723,15.764
			c-2.472,14.422-4.576,25.123-5.225,27.287C210.828,184.436,208.465,185.722,206.799,185.722z"/>
	</g>
	<g>
		<path fill="#FFFFFF" d="M285.798,162.089c-3.349,0-6.445-1.168-9.205-3.471c-3.091-2.58-4.513-6.113-4.231-10.502
			c-0.086-0.024-0.248-0.043-0.362-0.059c-0.526-0.063-1.319-0.16-1.588-0.988c-0.325-1,0.829-1.744,1.757-2.342
			c0.33-0.213,0.831-0.537,0.891-0.677c1.048-3.876,2.949-7.076,3.537-7.888c7.653-10.585,16.612-13.717,23.014-13.717
			c4.338,0,7.427,1.59,8.062,4.149c0.826,3.333-2.698,7.354-9.669,11.032c-2.289,1.128-4.691,2.204-7.015,3.243
			c-3.726,1.667-7.249,3.241-9.665,4.759c-0.832,4.655-0.676,10.686,4.9,10.686c3.953,0,8.109-3.232,11.146-5.595
			c1.83-1.421,3.037-2.36,3.83-2.36c0.333,0,0.529,0.162,0.635,0.297c0.331,0.421,0.315,1.244-0.055,2.753
			c-0.523,2.14-2.599,4.775-5.413,6.88C293.09,160.739,289.335,162.089,285.798,162.089z M299.547,125.88
			c-3.818,0-15.246,3.301-17.624,15.186c0.823-0.443,2.044-1.057,3.495-1.788c5.922-2.981,18.246-9.185,18.387-12.009
			C303.813,127.083,303.532,125.525,299.547,125.88z"/>
	</g>
	<g>
		<path fill="#FFFFFF" d="M181.063,161.862c-4.297,0-7.992-1.492-10.985-4.435c-4.787-4.714-3.513-11.261-1.604-15.921
			c1.03-2.516,2.276-4.576,3.14-5.863c6.956-11.121,20.355-14.819,24.235-15.034c6.809-0.378,10.536,2.577,11.199,6.268
			c0.369,2.049-0.137,7.318-12.732,11.995c-0.131,0.053-13.969,5.518-18.487,7.861c-0.636,2.703-0.366,5.137,1.022,6.735
			c1.56,1.688,3.945,1.858,6.129,1.858c4.558,0,8.753-2.607,11.817-4.51c1.675-1.041,2.887-1.795,3.675-1.795
			c0.388,0,0.611,0.179,0.731,0.328c0.328,0.412,0.343,1.182,0.044,2.496c-0.425,1.872-2.839,4.383-6.151,6.4
			C190.879,159.596,186.365,161.862,181.063,161.862z M198.984,125.28c-3.761,0-8.897,1.814-13.088,4.624
			c-4.803,3.222-7.883,7.343-9.109,11.931c2.896-1.538,7.32-3.525,12.048-5.551c6.623-2.84,13.708-6.238,14.193-8.652
			c0.09-0.447-0.063-0.867-0.465-1.282C201.91,125.647,200.674,125.28,198.984,125.28z"/>
	</g>
	<g>
		<path fill="#FFFFFF" d="M341.041,48.28c-0.615,2.052-13.447,54.375-19.152,77.688c-1.346,5.507-2.326,9.516-2.715,11.088
			c-0.768,3.121-1.602,6.461-2.412,9.693c-1.839,7.347-3.706,14.951-5.035,20.748c-3.875,16.914-8.318,18.467-9.65,18.467
			c-1.547,0-2.693-1.023-3.1-1.977c-0.559-1.269-0.215-2.585,1.082-4.139l0.071-0.086c0.824-0.992,3.399-5.342,4.62-9.447
			c0.835-2.807,2.701-8.859,3.596-12.92c1.756-7.977,2.863-13.008,4.795-20.674c1.782-7.079,4.059-17.209,6.261-27.006
			c1.573-6.999,3.06-13.611,4.274-18.709c2.678-11.119,10.516-39.252,12.609-52.282c0.367-2.29,0.745-4.656,1.193-7.008
			c0.091-0.828,0.607-4.75,2.303-4.75c1.426,0,5.182,6.12,3.936,10.861L341.041,48.28z"/>
	</g>
	<g>
		<path fill-rule="evenodd" clip-rule="evenodd" fill="#FFFFFF" d="M118.665,89.347c43.444-6.961,93.521,38.553-5.544,82.656
			c-31.801,12.724-59.812,14.038-80.442,12.248c-22.575-2.488-18.459-20.745-12.729-16.09c14.371,11.676,53.503,13.758,86.219,1.516
			c81.851-33.725,51.299-74.778,24.708-75.343c-13.612-0.29-35.456,2.685-46.621,8.929c-8.632,21.203-15.38,41.777-16.18,44.528
			c-4.403,13.403-4.828,21.72-8.971,22.145c-1.55,0.159-7.432-0.044-5.216-6.521c1.072-3.137,3.655-7.611,5.172-10.248
			c4.381-7.613,14.085-37.253,16.6-47.078c-3.798,0.131-2.476-5.847-1.26-8.786c0.945-2.285,3.577-1.43,5.483-2.225
			c0.758-2.625,3.396-9.438,4.358-12.017c5.122-14.393,13.125-25.094,14.094-14.341c0.307,3.409-7.304,14.818-10.824,25.245
			c37.553-9.878,58.014-30.241,56.398-39.617c-1.156-6.701-12.487-8.142-42.974-1.876C72.063,58.406,52.123,71.45,51.898,80.133
			c-0.553,9.127-12.4-6.554-5.349-10.67c23.903-15.202,105.055-39.754,103.338-11.862c-0.257,7.163-7.499,15.411-18.688,22.869
			c-9.446,6.295-12.647,6.81-18.322,9.728L118.665,89.347z"/>
	</g>
</g>
</svg>
